<?xml version="1.0" encoding="UTF-8" standalone="no"?>
<!-- Created with Inkscape (http://www.inkscape.org/) -->

<svg
   xmlns:dc="http://purl.org/dc/elements/1.1/"
   xmlns:cc="http://creativecommons.org/ns#"
   xmlns:rdf="http://www.w3.org/1999/02/22-rdf-syntax-ns#"
   xmlns:svg="http://www.w3.org/2000/svg"
   xmlns="http://www.w3.org/2000/svg"
   xmlns:sodipodi="http://sodipodi.sourceforge.net/DTD/sodipodi-0.dtd"
   xmlns:inkscape="http://www.inkscape.org/namespaces/inkscape"
   width="210mm"
   height="297mm"
   viewBox="0 0 210 297"
   version="1.1"
   id="svg1755"
   inkscape:version="0.92.5 (2060ec1f9f, 2020-04-08)"
   sodipodi:docname="drawing-2.svg">
  <defs
     id="defs1749" />
  <sodipodi:namedview
     id="base"
     pagecolor="#ffffff"
     bordercolor="#666666"
     borderopacity="1.0"
     inkscape:pageopacity="0.0"
     inkscape:pageshadow="2"
     inkscape:zoom="0.35"
     inkscape:cx="400"
     inkscape:cy="560"
     inkscape:document-units="mm"
     inkscape:current-layer="layer1"
     showgrid="false"
     inkscape:window-width="1920"
     inkscape:window-height="935"
     inkscape:window-x="0"
     inkscape:window-y="34"
     inkscape:window-maximized="1" />
  <metadata
     id="metadata1752">
    <rdf:RDF>
      <cc:Work
         rdf:about="">
        <dc:format>image/svg+xml</dc:format>
        <dc:type
           rdf:resource="http://purl.org/dc/dcmitype/StillImage" />
        <dc:title></dc:title>
      </cc:Work>
    </rdf:RDF>
  </metadata>
  <g
     inkscape:label="Layer 1"
     inkscape:groupmode="layer"
     id="layer1">
    <path
       sodipodi:type="spiral"
       style="fill:#e3dedb;fill-rule:evenodd;stroke:#000000;stroke-width:0.26458332"
       id="path1757"
       sodipodi:cx="89.202377"
       sodipodi:cy="130.69048"
       sodipodi:expansion="1"
       sodipodi:revolution="3"
       sodipodi:radius="119.16265"
       sodipodi:argument="-17.901958"
       sodipodi:t0="0"
       d="m 89.202377,130.69048 c 3.487005,4.85149 -4.819346,7.09396 -8.063494,5.79563 -8.791443,-3.51841 -8.345862,-15.44369 -3.527768,-21.92262 8.618439,-11.58929 25.861515,-10.29059 35.781745,-1.25991 14.55834,13.25289 12.31882,36.43002 -1.00796,49.64087 C 94.622409,180.55244 65.331669,177.32863 48.884904,159.66863 28.188328,137.44532 32.415834,101.96581 54.42859,82.309507 81.088987,58.503092 122.79592,63.744184 145.64684,90.121057 172.57586,121.20529 166.31556,169.1622 135.56743,195.19843 100.06749,225.2583 45.846257,217.97532 16.630925,182.85116 -16.565392,142.94085 -8.2574524,82.445599 31.246065,50.055529 75.563042,13.718765 142.33919,23.053242 177.90082,66.938532 c 39.48015,48.720988 29.118,121.783078 -19.15087,160.513878" />
  </g>
</svg>
